# xmcd
# 
# Track frame offsets:
#     150
#     22833
#     39065
#     72900
#     97318
#     100702
#     121910
#     143173
#     170517
#     220450
# 
# Disc length: 3262
# 
# Revision: 2
# Processed by: cddbd v1.5.2PL0 Copyright (c) Steve Scherf et al.
# Submitted via: fre:ac v1.0.17
# 
DISCID=840cbc0a
DTITLE=Lacrimosa - Revolution
DYEAR=2012
DGENRE=Gothic Metal
TTITLE0=Irgendein Arsch Ist Immer Unterwegs
TTITLE1=If The World Stood Still A Day
TTITLE2=Verloren
TTITLE3=This Is The Night
TTITLE4=Interlude - Feuerzug (Part I)
TTITLE5=Feuerzug (Part II)
TTITLE6=Refugium
TTITLE7=Weil Du Hilfe Brauchst
TTITLE8=Rote Sinfonie
TTITLE9=Revolution
EXTD=
EXTT0=
EXTT1=
EXTT2=
EXTT3=
EXTT4=
EXTT5=
EXTT6=
EXTT7=
EXTT8=
EXTT9=
PLAYORDER=
